<?xml version="1.0" encoding="UTF-8" standalone="no"?>
<!-- Created with Inkscape (http://www.inkscape.org/) -->

<svg
   width="201.52533mm"
   height="208.27977mm"
   viewBox="0 0 201.52533 208.27977"
   version="1.1"
   id="svg1"
   xmlns:inkscape="http://www.inkscape.org/namespaces/inkscape"
   xmlns:sodipodi="http://sodipodi.sourceforge.net/DTD/sodipodi-0.dtd"
   xmlns="http://www.w3.org/2000/svg"
   xmlns:svg="http://www.w3.org/2000/svg">
  <sodipodi:namedview
     id="namedview1"
     pagecolor="#ffffff"
     bordercolor="#000000"
     borderopacity="0.25"
     inkscape:showpageshadow="2"
     inkscape:pageopacity="0.0"
     inkscape:pagecheckerboard="0"
     inkscape:deskcolor="#d1d1d1"
     inkscape:document-units="mm" />
  <defs
     id="defs1">
    <clipPath
       clipPathUnits="userSpaceOnUse"
       id="clipPath16">
      <path
         d="M 0,0 H 1920 V 1080 H 0 Z"
         id="path16" />
    </clipPath>
    <clipPath
       clipPathUnits="userSpaceOnUse"
       id="clipPath18">
      <path
         d="M 0,0 H 1920 V 1080 H 0 Z"
         transform="matrix(1,0,0,-1,-1333.446,725.42722)"
         id="path18" />
    </clipPath>
    <clipPath
       clipPathUnits="userSpaceOnUse"
       id="clipPath21">
      <path
         d="M 0,0 H 1920 V 1080 H 0 Z"
         transform="matrix(1,0,0,-1,-1192.461,854.35642)"
         id="path21" />
    </clipPath>
    <clipPath
       clipPathUnits="userSpaceOnUse"
       id="clipPath24">
      <path
         d="M 0,0 H 1920 V 1080 H 0 Z"
         transform="matrix(1,0,0,-1,-1192.461,348.92831)"
         id="path24" />
    </clipPath>
    <clipPath
       clipPathUnits="userSpaceOnUse"
       id="clipPath26">
      <path
         d="M 0,0 H 1920 V 1080 H 0 Z"
         transform="matrix(1,0,0,-1,-1342.384,453.21845)"
         id="path26" />
    </clipPath>
    <clipPath
       clipPathUnits="userSpaceOnUse"
       id="clipPath28">
      <path
         d="M 0,0 H 1920 V 1080 H 0 Z"
         transform="matrix(1,0,0,-1,-1370.3787,443.21845)"
         id="path28" />
    </clipPath>
    <clipPath
       clipPathUnits="userSpaceOnUse"
       id="clipPath30">
      <path
         d="M 0,0 H 1920 V 1080 H 0 Z"
         transform="matrix(1,0,0,-1,-1378.2738,443.21845)"
         id="path30" />
    </clipPath>
    <clipPath
       clipPathUnits="userSpaceOnUse"
       id="clipPath32">
      <path
         d="M 0,0 H 1920 V 1080 H 0 Z"
         transform="matrix(-0.40488577,-0.91436724,-0.91436724,0.40488577,1410.3538,1113.9788)"
         id="path32" />
    </clipPath>
    <clipPath
       clipPathUnits="userSpaceOnUse"
       id="clipPath34">
      <path
         d="M 0,0 H 1920 V 1080 H 0 Z"
         transform="matrix(1,0,0,-1,-1360.624,303.25718)"
         id="path34" />
    </clipPath>
    <clipPath
       clipPathUnits="userSpaceOnUse"
       id="clipPath36">
      <path
         d="M 0,0 H 1920 V 1080 H 0 Z"
         transform="matrix(1,0,0,-1,-1405.92,382.08695)"
         id="path36" />
    </clipPath>
    <clipPath
       clipPathUnits="userSpaceOnUse"
       id="clipPath38">
      <path
         d="M 0,0 H 1920 V 1080 H 0 Z"
         transform="matrix(1,0,0,-1,-1434.8001,382.08695)"
         id="path38" />
    </clipPath>
    <clipPath
       clipPathUnits="userSpaceOnUse"
       id="clipPath40">
      <path
         d="M 0,0 H 1920 V 1080 H 0 Z"
         transform="matrix(1,0,0,-1,-1456.0914,372.08695)"
         id="path40" />
    </clipPath>
    <clipPath
       clipPathUnits="userSpaceOnUse"
       id="clipPath42">
      <path
         d="M 0,0 H 1920 V 1080 H 0 Z"
         transform="matrix(1,0,0,-1,-1463.9867,382.08695)"
         id="path42" />
    </clipPath>
    <clipPath
       clipPathUnits="userSpaceOnUse"
       id="clipPath44">
      <path
         d="M 0,0 H 1920 V 1080 H 0 Z"
         transform="matrix(1,0,0,-1,-1477.3067,382.08695)"
         id="path44" />
    </clipPath>
    <clipPath
       clipPathUnits="userSpaceOnUse"
       id="clipPath46">
      <path
         d="M 0,0 H 1920 V 1080 H 0 Z"
         transform="matrix(1,0,0,-1,-1497.3066,382.08695)"
         id="path46" />
    </clipPath>
    <clipPath
       clipPathUnits="userSpaceOnUse"
       id="clipPath48">
      <path
         d="M 0,0 H 1920 V 1080 H 0 Z"
         transform="matrix(1,0,0,-1,-1513.9734,382.08695)"
         id="path48" />
    </clipPath>
    <clipPath
       clipPathUnits="userSpaceOnUse"
       id="clipPath50">
      <path
         d="M 0,0 H 1920 V 1080 H 0 Z"
         transform="matrix(1,0,0,-1,-1541.9679,372.08695)"
         id="path50" />
    </clipPath>
    <clipPath
       clipPathUnits="userSpaceOnUse"
       id="clipPath52">
      <path
         d="M 0,0 H 1920 V 1080 H 0 Z"
         transform="matrix(1,0,0,-1,-1549.8631,372.08695)"
         id="path52" />
    </clipPath>
    <clipPath
       clipPathUnits="userSpaceOnUse"
       id="clipPath54">
      <path
         d="M 0,0 H 1920 V 1080 H 0 Z"
         transform="matrix(1,0,0,-1,-1571.1631,382.08695)"
         id="path54" />
    </clipPath>
    <clipPath
       clipPathUnits="userSpaceOnUse"
       id="clipPath56">
      <path
         d="m 1493.123,579.7881 h 32.578 v 30.4684 h -32.578 z"
         transform="matrix(1,0,0,-1,-1493.4831,590.81656)"
         id="path56" />
    </clipPath>
    <clipPath
       clipPathUnits="userSpaceOnUse"
       id="clipPath58">
      <path
         d="m 1493.123,579.7881 h 32.578 v 30.4684 h -32.578 z"
         transform="matrix(1,0,0,-1,-1513.483,580.81655)"
         id="path58" />
    </clipPath>
    <clipPath
       clipPathUnits="userSpaceOnUse"
       id="clipPath60">
      <path
         d="m 1575.647,864.1944 h 34.85 v 30.4684 h -34.85 z"
         transform="matrix(1,0,0,-1,-1576.0071,875.22286)"
         id="path60" />
    </clipPath>
    <clipPath
       clipPathUnits="userSpaceOnUse"
       id="clipPath62">
      <path
         d="m 1575.647,864.1944 h 34.85 v 30.4684 h -34.85 z"
         transform="matrix(1,0,0,-1,-1596.007,865.22286)"
         id="path62" />
    </clipPath>
    <clipPath
       clipPathUnits="userSpaceOnUse"
       id="clipPath65">
      <path
         d="m 1601.936,842.811 -53.614,-121.188 -17.193,7.6061 53.614,121.188 z"
         transform="matrix(1.3333333,0,0,-1.3333333,0,1440)"
         id="path65" />
    </clipPath>
    <clipPath
       clipPathUnits="userSpaceOnUse"
       id="clipPath63">
      <path
         d="M 0,0 H 1920 V 1080 H 0 Z"
         transform="matrix(-0.40457749,-0.91450371,-0.91450371,0.40457749,1417.861,1114.594)"
         id="path63" />
    </clipPath>
    <clipPath
       clipPathUnits="userSpaceOnUse"
       id="clipPath67">
      <path
         d="m 1601.936,842.811 -53.614,-121.188 -17.193,7.6061 53.614,121.188 z"
         id="path67" />
    </clipPath>
    <clipPath
       clipPathUnits="userSpaceOnUse"
       id="clipPath69">
      <path
         d="m 1601.936,842.811 -53.614,-121.188 -17.193,7.6061 53.614,121.188 z"
         id="path69" />
    </clipPath>
    <clipPath
       clipPathUnits="userSpaceOnUse"
       id="clipPath72">
      <path
         d="m 1488.989,588.3226 -53.507,-121.3321 -17.202,7.5858 53.507,121.3322 z"
         transform="matrix(1.3333333,0,0,-1.3333333,0,1440)"
         id="path72" />
    </clipPath>
    <clipPath
       clipPathUnits="userSpaceOnUse"
       id="clipPath70">
      <path
         d="M 0,0 H 1920 V 1080 H 0 Z"
         transform="matrix(-0.40350439,-0.91497769,-0.91497769,0.40350439,1138.1158,1115.6012)"
         id="path70" />
    </clipPath>
    <clipPath
       clipPathUnits="userSpaceOnUse"
       id="clipPath74">
      <path
         d="m 1488.989,588.3226 -53.507,-121.3321 -17.202,7.5858 53.507,121.3322 z"
         id="path74" />
    </clipPath>
    <clipPath
       clipPathUnits="userSpaceOnUse"
       id="clipPath76">
      <path
         d="m 1488.989,588.3226 -53.507,-121.3321 -17.202,7.5858 53.507,121.3322 z"
         id="path76" />
    </clipPath>
    <clipPath
       clipPathUnits="userSpaceOnUse"
       id="clipPath78">
      <path
         d="m 1453.503,459.5319 h 195.8876 v 43.0728 H 1453.503 Z"
         transform="matrix(1,0,0,-1,-1454.823,474.56465)"
         id="path78" />
    </clipPath>
    <clipPath
       clipPathUnits="userSpaceOnUse"
       id="clipPath80">
      <path
         d="m 1453.503,459.5319 h 195.8876 v 43.0728 H 1453.503 Z"
         transform="matrix(1,0,0,-1,-1477.063,474.56465)"
         id="path80" />
    </clipPath>
    <clipPath
       clipPathUnits="userSpaceOnUse"
       id="clipPath82">
      <path
         d="m 1453.503,459.5319 h 195.8876 v 43.0728 H 1453.503 Z"
         transform="matrix(1,0,0,-1,-1490.383,474.56465)"
         id="path82" />
    </clipPath>
    <clipPath
       clipPathUnits="userSpaceOnUse"
       id="clipPath84">
      <path
         d="m 1453.503,459.5319 h 195.8876 v 43.0728 H 1453.503 Z"
         transform="matrix(1,0,0,-1,-1510.383,464.56465)"
         id="path84" />
    </clipPath>
    <clipPath
       clipPathUnits="userSpaceOnUse"
       id="clipPath86">
      <path
         d="m 1453.503,459.5319 h 195.8876 v 43.0728 H 1453.503 Z"
         transform="matrix(1,0,0,-1,-1524.583,474.56465)"
         id="path86" />
    </clipPath>
    <clipPath
       clipPathUnits="userSpaceOnUse"
       id="clipPath88">
      <path
         d="m 1453.503,459.5319 h 195.8876 v 43.0728 H 1453.503 Z"
         transform="matrix(1,0,0,-1,-1543.4719,474.56465)"
         id="path88" />
    </clipPath>
    <clipPath
       clipPathUnits="userSpaceOnUse"
       id="clipPath90">
      <path
         d="m 1453.503,459.5319 h 195.8876 v 43.0728 H 1453.503 Z"
         transform="matrix(1,0,0,-1,-1579.7608,474.56465)"
         id="path90" />
    </clipPath>
    <clipPath
       clipPathUnits="userSpaceOnUse"
       id="clipPath92">
      <path
         d="m 1453.503,459.5319 h 195.8876 v 43.0728 H 1453.503 Z"
         transform="matrix(1,0,0,-1,-1607.7555,464.56465)"
         id="path92" />
    </clipPath>
    <clipPath
       clipPathUnits="userSpaceOnUse"
       id="clipPath94">
      <path
         d="m 1453.503,459.5319 h 195.8876 v 43.0728 H 1453.503 Z"
         transform="matrix(1,0,0,-1,-1615.6506,464.56465)"
         id="path94" />
    </clipPath>
    <clipPath
       clipPathUnits="userSpaceOnUse"
       id="clipPath96">
      <path
         d="m 1453.503,459.5319 h 195.8876 v 43.0728 H 1453.503 Z"
         transform="matrix(1,0,0,-1,-1636.9506,474.56465)"
         id="path96" />
    </clipPath>
    <clipPath
       clipPathUnits="userSpaceOnUse"
       id="clipPath98">
      <path
         d="m 1567.865,709.5171 h 195.8876 v 43.0728 H 1567.865 Z"
         transform="matrix(1,0,0,-1,-1569.1851,724.54986)"
         id="path98" />
    </clipPath>
    <clipPath
       clipPathUnits="userSpaceOnUse"
       id="clipPath100">
      <path
         d="m 1567.865,709.5171 h 195.8876 v 43.0728 H 1567.865 Z"
         transform="matrix(1,0,0,-1,-1591.425,724.54986)"
         id="path100" />
    </clipPath>
    <clipPath
       clipPathUnits="userSpaceOnUse"
       id="clipPath102">
      <path
         d="m 1567.865,709.5171 h 195.8876 v 43.0728 H 1567.865 Z"
         transform="matrix(1,0,0,-1,-1604.745,724.54986)"
         id="path102" />
    </clipPath>
    <clipPath
       clipPathUnits="userSpaceOnUse"
       id="clipPath104">
      <path
         d="m 1567.865,709.5171 h 195.8876 v 43.0728 H 1567.865 Z"
         transform="matrix(1,0,0,-1,-1624.7451,714.54986)"
         id="path104" />
    </clipPath>
    <clipPath
       clipPathUnits="userSpaceOnUse"
       id="clipPath106">
      <path
         d="m 1567.865,709.5171 h 195.8876 v 43.0728 H 1567.865 Z"
         transform="matrix(1,0,0,-1,-1638.945,724.54986)"
         id="path106" />
    </clipPath>
    <clipPath
       clipPathUnits="userSpaceOnUse"
       id="clipPath108">
      <path
         d="m 1567.865,709.5171 h 195.8876 v 43.0728 H 1567.865 Z"
         transform="matrix(1,0,0,-1,-1657.8339,724.54986)"
         id="path108" />
    </clipPath>
    <clipPath
       clipPathUnits="userSpaceOnUse"
       id="clipPath110">
      <path
         d="m 1567.865,709.5171 h 195.8876 v 43.0728 H 1567.865 Z"
         transform="matrix(1,0,0,-1,-1694.1228,724.54986)"
         id="path110" />
    </clipPath>
    <clipPath
       clipPathUnits="userSpaceOnUse"
       id="clipPath112">
      <path
         d="m 1567.865,709.5171 h 195.8876 v 43.0728 H 1567.865 Z"
         transform="matrix(1,0,0,-1,-1722.1174,714.54986)"
         id="path112" />
    </clipPath>
    <clipPath
       clipPathUnits="userSpaceOnUse"
       id="clipPath114">
      <path
         d="m 1567.865,709.5171 h 195.8876 v 43.0728 H 1567.865 Z"
         transform="matrix(1,0,0,-1,-1730.0127,714.54986)"
         id="path114" />
    </clipPath>
    <clipPath
       clipPathUnits="userSpaceOnUse"
       id="clipPath116">
      <path
         d="m 1567.865,709.5171 h 195.8876 v 43.0728 H 1567.865 Z"
         transform="matrix(1,0,0,-1,-1751.3127,724.54986)"
         id="path116" />
    </clipPath>
    <clipPath
       clipPathUnits="userSpaceOnUse"
       id="clipPath236">
      <path
         d="M 0,0 H 1920 V 1080 H 0 Z"
         transform="matrix(0.41220555,0.9110908,0.9110908,-0.41220555,-874.71638,-1106.6986)"
         id="path236" />
    </clipPath>
    <clipPath
       clipPathUnits="userSpaceOnUse"
       id="clipPath238">
      <path
         d="M 0,0 H 1920 V 1080 H 0 Z"
         id="path238" />
    </clipPath>
    <clipPath
       clipPathUnits="userSpaceOnUse"
       id="clipPath240">
      <path
         d="M 0,0 H 1920 V 1080 H 0 Z"
         id="path240" />
    </clipPath>
  </defs>
  <g
     inkscape:label="Layer 1"
     inkscape:groupmode="layer"
     id="layer1"
     transform="translate(-28.574989,-53.710416)">
    <g
       id="g14"
       transform="matrix(0.26458333,0,0,0.26458333,-391.74597,-12.02717)">
      <path
         id="path15"
         d="m 1333.446,582.1267 h 143.3004 V 725.4271 H 1333.446 Z"
         style="fill:#dddddd icc-color(sRGB-IEC61966-2, 0.1, 0.86698914, 0.86698914, 0.86698914);fill-opacity:1;fill-rule:nonzero;stroke:none"
         transform="matrix(1.3333333,0,0,-1.3333333,0,1440)"
         clip-path="url(#clipPath16)" />
      <path
         id="path17"
         d="M 0,0 H 143.3004 V 143.3004 H 0 Z"
         style="fill:none;stroke:#0d1239 icc-color(sRGB-IEC61966-2, 0.1, 0.05097961, 0.07058716, 0.223526);stroke-width:2;stroke-linecap:butt;stroke-linejoin:miter;stroke-miterlimit:8;stroke-dasharray:none;stroke-opacity:1"
         transform="matrix(1.3333333,0,0,1.3333333,1777.928,472.76373)"
         clip-path="url(#clipPath18)" />
    </g>
    <g
       id="g18"
       transform="matrix(0.26458333,0,0,0.26458333,-391.74597,-12.02717)">
      <path
         id="path19"
         d="m 1192.461,836.3564 h 525.9973 v 18 H 1192.461 Z"
         style="fill:#dddddd icc-color(sRGB-IEC61966-2, 0.1, 0.86698914, 0.86698914, 0.86698914);fill-opacity:1;fill-rule:nonzero;stroke:none"
         transform="matrix(1.3333333,0,0,-1.3333333,0,1440)" />
      <path
         id="path20"
         d="M 0,0 H 525.9973 V 18 H 0 Z"
         style="fill:none;stroke:#0d1239 icc-color(sRGB-IEC61966-2, 0.1, 0.05097961, 0.07058716, 0.223526);stroke-width:2;stroke-linecap:butt;stroke-linejoin:miter;stroke-miterlimit:8;stroke-dasharray:none;stroke-opacity:1"
         transform="matrix(1.3333333,0,0,1.3333333,1589.948,300.85813)"
         clip-path="url(#clipPath21)" />
    </g>
    <g
       id="g21"
       transform="matrix(0.26458333,0,0,0.26458333,-391.74597,-12.02717)">
      <path
         id="path22"
         d="m 1192.461,330.9283 h 525.9973 v 18 H 1192.461 Z"
         style="fill:#dddddd icc-color(sRGB-IEC61966-2, 0.1, 0.86698914, 0.86698914, 0.86698914);fill-opacity:1;fill-rule:nonzero;stroke:none"
         transform="matrix(1.3333333,0,0,-1.3333333,0,1440)" />
      <path
         id="path23"
         d="M 0,0 H 525.9973 V 18 H 0 Z"
         style="fill:none;stroke:#0d1239 icc-color(sRGB-IEC61966-2, 0.1, 0.05097961, 0.07058716, 0.223526);stroke-width:2;stroke-linecap:butt;stroke-linejoin:miter;stroke-miterlimit:8;stroke-dasharray:none;stroke-opacity:1"
         transform="matrix(1.3333333,0,0,1.3333333,1589.948,974.76227)"
         clip-path="url(#clipPath24)" />
    </g>
    <g
       id="g24"
       transform="matrix(0.26458333,0,0,0.26458333,-391.74597,-12.02717)">
      <path
         id="path25"
         d="m 18.912875,-17.40363 c 1.769531,0 2.683594,0.398437 3.046875,1.324218 0.234375,0.597657 0.316406,1.277344 0.316406,2.074219 0,2.519531 -2.074218,13.35937519 -6.316406,13.35937519 -1.523437,0 -2.121094,-1.19531249 -2.121094,-2.87109379 0,-0.4804687 0.03516,-1.0078125 0.117188,-1.5234375 0.28125,-0.4804687 1.722656,-3 2.15625,-4.6054687 0.246094,-0.9140622 0.410156,-1.8398442 0.410156,-2.5898442 0,-1.523437 -0.527344,-2.601562 -1.488281,-2.601562 -2.753906,0 -4.230469,4.640625 -4.230469,7.8749999 0,0.796875 0.03516,1.4765625 0.03516,1.9570313 -0.878906,2.4023437 -2.3554685,4.35937499 -4.3242185,4.35937499 -1.359375,0 -1.875,-1.27734379 -1.875,-2.67187499 0,-4.6875 1.5234375,-9.8789062 4.1132813,-12.7265622 1.0078125,-1.113282 2.2851562,-1.359375 4.0429692,-1.359375 v -1.078125 c -4.3125005,0 -6.7968755,1.125 -8.8007817,3 -2.390625,2.320312 -4.1132813,5.7187497 -4.1132813,10.4062497 0,2.0742187 0.99609375,3.8789062 2.6367188,4.79296874 0.9609375,0.5625 2.203125,0.796875 3.4453125,0.796875 2.15625,0 4.4296877,-0.796875 5.6367187,-2.47265624 0.632813,1.83984374 2.519531,2.47265624 4.476563,2.47265624 0.84375,0 1.722656,-0.1171875 2.484375,-0.3515625 5.109375,-1.55859374 8.472656,-7.75781254 8.472656,-12.52734394 0,-1.078125 -0.234375,-2.039062 -0.679688,-2.871094 -0.960937,-1.886718 -2.882812,-3.246093 -7.441406,-3.246093 z m 0,0"
         style="fill:#000000 icc-color(sRGB-IEC61966-2, 0.1, 0, 0, 0);fill-opacity:1;fill-rule:nonzero;stroke:none"
         aria-label="ω"
         transform="matrix(1.3333333,0,0,1.3333333,1789.8453,835.70875)"
         clip-path="url(#clipPath26)" />
      <path
         id="path27"
         d="m 5.1096913,-17.94074 c 0,-0.796875 -0.6210938,-1.453125 -1.4414063,-1.453125 -0.796875,0 -1.453125,0.65625 -1.453125,1.453125 0,0.820313 0.6210938,1.441407 1.4179688,1.441407 0.8554687,0 1.4765625,-0.621094 1.4765625,-1.441407 z M 7.18391,6.665625e-4 V -0.42120844 c -1.875,-0.140625 -2.0976562,-0.45703125 -2.0976562,-2.55468746 v -9.9726561 l -0.1171875,-0.117188 -4.40625005,1.570313 v 0.445312 C 1.0784413,-11.19074 1.5003163,-11.19074 1.7581288,-11.19074 c 0.7148437,0 0.9375,0.457032 0.9375,1.7929691 v 6.4453125 c 0,2.15624996 -0.28125,2.41406246 -2.2382813,2.53124996 V 6.665625e-4 Z m 0,0"
         style="fill:#000000 icc-color(sRGB-IEC61966-2, 0.1, 0, 0, 0);fill-opacity:1;fill-rule:nonzero;stroke:none"
         aria-label="i"
         transform="matrix(1.3333333,0,0,1.3333333,1827.1715,849.04208)"
         clip-path="url(#clipPath28)" />
      <path
         id="path29"
         d="m 2.3560928,4.0084791 c 1.9570313,-0.9375 3.1757813,-2.7304688 3.1757813,-4.42968754 0,-1.47656246 -0.984375,-2.47265626 -2.2617188,-2.47265626 -1.03125,0 -1.7109375,0.65625 -1.7109375,1.6171875 0,0.96093751 0.5976563,1.45312501 1.6523438,1.45312501 0.3046875,0 0.5976562,-0.1171875 0.8203125,-0.1171875 0.2226562,0 0.3984375,0.1640625 0.3984375,0.36328125 0,0.93750004 -0.796875,1.99218754 -2.3554688,3.04687504 z M 20.564101,-3.8899584 20.165663,-4.0540209 c -0.9375,1.5820312 -1.535156,1.8984375 -2.730469,1.8984375 h -6.644531 l 4.6875,-5.0039063 c 2.519531,-2.6601562 3.632813,-4.7929683 3.632813,-7.0429683 0,-2.800782 -2.050782,-4.992188 -5.25,-4.992188 -3.492188,0 -5.3085941,2.332031 -5.9062504,5.648438 l 0.5976563,0.140625 c 1.125,-2.777344 2.1210941,-3.691407 4.1718751,-3.691407 2.414062,0 3.949219,1.429688 3.949219,4.007813 0,2.414062 -1.03125,4.5703123 -3.691407,7.3828123 L 7.9195694,-0.33917719 V 6.665625e-4 H 19.028944 Z m 0,0"
         style="fill:#000000 icc-color(sRGB-IEC61966-2, 0.1, 0, 0, 0);fill-opacity:1;fill-rule:nonzero;stroke:none"
         aria-label=",2"
         transform="matrix(1.3333333,0,0,1.3333333,1837.6984,849.04208)"
         clip-path="url(#clipPath30)" />
    </g>
    <g
       id="g30"
       transform="matrix(0.26458333,0,0,0.26458333,-391.74597,-12.02717)">
      <path
         id="path31"
         d="M 0,0 H 537.0378"
         style="fill:none;stroke:#dddddd icc-color(sRGB-IEC61966-2, 0.1, 0.86698914, 0.86698914, 0.86698914);stroke-width:2;stroke-linecap:butt;stroke-linejoin:miter;stroke-miterlimit:4;stroke-dasharray:4, 4;stroke-dashoffset:0;stroke-opacity:1"
         transform="matrix(-0.53984773,1.2191564,-1.2191564,-0.53984773,2119.4907,321.93707)"
         clip-path="url(#clipPath32)" />
    </g>
    <g
       id="g32"
       transform="matrix(0.26458333,0,0,0.26458333,-391.74597,-12.02717)">
      <path
         id="path33"
         d="M 19.358422,-6.725e-4 V -0.96161 c -0.644531,-0.1992188 -0.925781,-0.3632813 -1.207031,-0.796875 l -5.917969,-9.117188 4.042969,-5.039062 c 0.761718,-0.925781 1.558593,-1.359375 2.800781,-1.558594 v -0.960937 h -6.714844 v 0.960937 l 0.796875,0.07031 c 0.914063,0.08203 1.242188,0.28125 1.242188,0.878906 0,0.609375 -0.445313,1.160156 -1.523438,2.566406 l -1.441406,1.839844 c -0.164063,-0.246094 -0.363281,-0.480469 -0.515625,-0.679688 -1.3242189,-1.722656 -2.3203126,-3.398437 -2.3203126,-3.925781 0,-0.480469 0.5625,-0.714844 1.8749996,-0.75 v -0.960937 H 0.47951563 v 0.960937 c 1.04296877,0.152344 1.27734377,0.351563 2.07421877,1.558594 l 5.1210937,7.875 c -0.5976562,0.7148437 -0.28125,0.3632812 -0.8789062,1.125 l -1.7226563,2.2382812 c -2.2382812,3 -3.0351562,3.6328125 -4.51171872,3.7148438 V -6.725e-4 H 7.3232656 V -0.96161 C 5.8818594,-1.0436413 5.3193594,-1.3248913 5.3193594,-1.9225475 c 0,-0.6328125 0.9960937,-2.2382813 2.5546875,-4.1132813 0.2460937,-0.28125 0.4453125,-0.5625 0.6445312,-0.8085937 0.515625,0.84375 1.078125,1.6875 1.6757809,2.5195312 0.960938,1.40625 1.324219,2.0859375 1.324219,2.5664063 0,0.4804687 -0.515625,0.7148437 -1.8046874,0.796875 v 0.9609375 z m 0,0"
         style="fill:#000000 icc-color(sRGB-IEC61966-2, 0.1, 0, 0, 0);fill-opacity:1;fill-rule:nonzero;stroke:none"
         aria-label="x"
         transform="matrix(1.3333333,0,0,1.3333333,1814.1653,1035.6571)"
         clip-path="url(#clipPath34)" />
    </g>
    <g
       id="g34"
       transform="matrix(0.26458333,0,0,0.26458333,-391.74597,-12.02717)">
      <path
         id="path35"
         d="M 26.998945,2.59375e-5 14.682539,-26.953099 H 13.873945 L 1.9208203,2.59375e-5 Z M 20.95207,-3.6796616 H 5.4364453 L 13.241133,-21.281224 Z m 0,0"
         style="fill:#000000 icc-color(sRGB-IEC61966-2, 0.1, 0, 0, 0);fill-opacity:1;fill-rule:nonzero;stroke:none"
         aria-label="Δ"
         transform="matrix(1.3333333,0,0,1.3333333,1874.56,930.55075)"
         clip-path="url(#clipPath36)" />
      <path
         id="path37"
         d="m 22.35918,-7.1952866 -0.796875,-0.2460937 c -1.125,2.3203125 -2.003907,3.6445312 -3.28125,4.4765625 -1.957032,1.3242187 -3.199219,1.5234375 -7.207032,1.5234375 -3.2695308,0 -4.1953121,-0.3984375 -4.1953121,-1.640625 0,-0.5625 0.1640625,-1.2421875 0.3984375,-2.15625 L 12.081836,-22.394505 c 0.632812,-2.285157 1.640625,-2.917969 4.03125,-3.082032 v -0.644531 H 5.2029297 v 0.644531 c 2.4726562,0.164063 3.0703125,0.5625 3.0703125,1.722657 0,0.597656 -0.1171875,1.394531 -0.4335938,2.472656 l -4.875,17.5195312 c -0.7265625,2.5195312 -1.0429687,2.88281249 -3.28124996,3.11718749 V 2.59375e-5 H 20.038867 Z m 0,0"
         style="fill:#000000 icc-color(sRGB-IEC61966-2, 0.1, 0, 0, 0);fill-opacity:1;fill-rule:nonzero;stroke:none"
         aria-label="L"
         transform="matrix(1.3333333,0,0,1.3333333,1913.0667,930.55075)"
         clip-path="url(#clipPath38)" />
      <path
         id="path39"
         d="m 5.1107184,-17.942357 c 0,-0.796875 -0.6210937,-1.453125 -1.4414062,-1.453125 -0.796875,0 -1.453125,0.65625 -1.453125,1.453125 0,0.820313 0.6210937,1.441406 1.4179687,1.441406 0.8554688,0 1.4765625,-0.621093 1.4765625,-1.441406 z M 7.1849372,-9.50625e-4 V -0.42282563 c -1.875,-0.140625 -2.0976563,-0.45703125 -2.0976563,-2.55468747 v -9.9726559 l -0.1171875,-0.117188 -4.40624996,1.570313 v 0.445312 c 0.51562496,-0.140625 0.93749996,-0.140625 1.19531246,-0.140625 0.7148438,0 0.9375,0.457031 0.9375,1.7929689 v 6.4453125 c 0,2.15624997 -0.28125,2.41406247 -2.23828121,2.53124997 v 0.421875005 z m 0,0"
         style="fill:#000000 icc-color(sRGB-IEC61966-2, 0.1, 0, 0, 0);fill-opacity:1;fill-rule:nonzero;stroke:none"
         aria-label="i"
         transform="matrix(1.3333333,0,0,1.3333333,1941.4552,943.88408)"
         clip-path="url(#clipPath40)" />
      <path
         id="path41"
         d="m 12.162784,6.4336197 c -5.6015624,-4.6757813 -6.8085937,-9.1875 -6.8085937,-16.6289067 0,-7.722656 1.2421875,-11.4375 6.8085937,-16.207031 l -0.363281,-0.632812 c -6.3984377,3.796875 -9.8789064,9.5625 -9.8789064,16.957031 0,6.7968749 3.4335937,13.5585937 9.7617184,17.1562499 z m 0,0"
         style="fill:#000000 icc-color(sRGB-IEC61966-2, 0.1, 0, 0, 0);fill-opacity:1;fill-rule:nonzero;stroke:none"
         aria-label="("
         transform="matrix(1.3333333,0,0,1.3333333,1951.9822,930.55075)"
         clip-path="url(#clipPath42)" />
      <path
         id="path43"
         d="M 19.359386,2.59375e-5 V -0.96091156 C 18.714854,-1.1601303 18.433604,-1.3241928 18.152354,-1.7577866 l -5.917968,-9.1171874 4.042968,-5.039063 c 0.761719,-0.925781 1.558594,-1.359375 2.800782,-1.558593 v -0.960938 h -6.714844 v 0.960938 l 0.796875,0.07031 c 0.914062,0.08203 1.242187,0.28125 1.242187,0.878906 0,0.609375 -0.445312,1.160157 -1.523437,2.566407 l -1.441406,1.839843 c -0.164063,-0.246093 -0.363282,-0.480468 -0.515625,-0.679687 -1.3242191,-1.722656 -2.3203129,-3.398438 -2.3203129,-3.925781 0,-0.480469 0.5625,-0.714844 1.8749999,-0.75 V -18.43357 H 0.48047937 v 0.960938 c 1.04296873,0.152343 1.27734373,0.351562 2.07421873,1.558593 l 5.1210938,7.8750004 c -0.5976563,0.7148438 -0.28125,0.3632813 -0.8789063,1.125 l -1.7226562,2.2382813 c -2.2382813,3 -3.0351563,3.6328125 -4.51171878,3.71484374 V 2.59375e-5 H 7.3242294 V -0.96091156 C 5.8828231,-1.0429428 5.3203231,-1.3241928 5.3203231,-1.9218491 c 0,-0.6328125 0.9960938,-2.2382812 2.5546875,-4.1132812 0.2460938,-0.28125 0.4453125,-0.5625 0.6445313,-0.8085938 0.515625,0.84375 1.078125,1.6875 1.6757811,2.5195313 0.960938,1.40625 1.324219,2.0859375 1.324219,2.5664062 0,0.4804688 -0.515625,0.7148438 -1.8046876,0.79687504 V 2.59375e-5 Z m 0,0"
         style="fill:#000000 icc-color(sRGB-IEC61966-2, 0.1, 0, 0, 0);fill-opacity:1;fill-rule:nonzero;stroke:none"
         aria-label="x"
         transform="matrix(1.3333333,0,0,1.3333333,1969.7422,930.55075)"
         clip-path="url(#clipPath44)" />
      <path
         id="path45"
         d="m 3.3173934,5.6367447 c 2.765625,-1.3125 4.4882813,-3.8320313 4.4882813,-6.23437501 0,-2.08593749 -1.40625,-3.48046879 -3.2109375,-3.48046879 -1.4296875,0 -2.390625,0.9140625 -2.390625,2.2734375 0,1.35937504 0.8320312,2.03906254 2.3203125,2.03906254 0.4335937,0 0.8320312,-0.15234375 1.1601562,-0.15234375 0.3164063,0 0.5507813,0.234375 0.5507813,0.515625 0,1.32421871 -1.1132813,2.80078121 -3.3164063,4.27734371 z m 0,0"
         style="fill:#000000 icc-color(sRGB-IEC61966-2, 0.1, 0, 0, 0);fill-opacity:1;fill-rule:nonzero;stroke:none"
         aria-label=","
         transform="matrix(1.3333333,0,0,1.3333333,1996.4088,930.55075)"
         clip-path="url(#clipPath46)" />
      <path
         id="path47"
         d="m 18.915372,-17.402318 c 1.769531,0 2.683594,0.398438 3.046875,1.324219 0.234375,0.597656 0.316406,1.277344 0.316406,2.074219 0,2.519531 -2.074219,13.35937469 -6.316406,13.35937469 -1.523438,0 -2.121094,-1.19531249 -2.121094,-2.87109379 0,-0.4804687 0.03516,-1.0078125 0.117188,-1.5234375 0.28125,-0.4804687 1.722656,-3 2.15625,-4.6054687 0.246093,-0.9140627 0.410156,-1.8398437 0.410156,-2.5898437 0,-1.523438 -0.527344,-2.601563 -1.488281,-2.601563 -2.753907,0 -4.230469,4.640625 -4.230469,7.8750004 0,0.796875 0.03516,1.4765625 0.03516,1.9570313 -0.8789061,2.4023437 -2.3554686,4.35937499 -4.3242186,4.35937499 -1.359375,0 -1.875,-1.27734379 -1.875,-2.67187499 0,-4.6875 1.5234375,-9.8789067 4.1132812,-12.7265627 1.0078125,-1.113281 2.2851564,-1.359375 4.0429684,-1.359375 v -1.078125 c -4.3124996,0 -6.7968746,1.125 -8.8007809,3 -2.390625,2.320313 -4.11328122,5.7187502 -4.11328122,10.4062502 0,2.0742187 0.99609375,3.8789062 2.63671872,4.79296874 0.9609375,0.5625 2.203125,0.796875 3.4453125,0.796875 2.15625,0 4.4296879,-0.796875 5.6367189,-2.47265624 0.632812,1.83984374 2.519531,2.47265624 4.476562,2.47265624 0.84375,0 1.722657,-0.1171875 2.484375,-0.3515625 5.109375,-1.55859374 8.472657,-7.75781254 8.472657,-12.52734344 0,-1.078125 -0.234375,-2.039063 -0.679688,-2.871094 -0.960937,-1.886719 -2.882812,-3.246094 -7.441406,-3.246094 z m 0,0"
         style="fill:#000000 icc-color(sRGB-IEC61966-2, 0.1, 0, 0, 0);fill-opacity:1;fill-rule:nonzero;stroke:none"
         aria-label="ω"
         transform="matrix(1.3333333,0,0,1.3333333,2018.6311,930.55075)"
         clip-path="url(#clipPath48)" />
      <path
         id="path49"
         d="m 5.1092484,-17.942357 c 0,-0.796875 -0.6210937,-1.453125 -1.4414062,-1.453125 -0.796875,0 -1.453125,0.65625 -1.453125,1.453125 0,0.820313 0.6210937,1.441406 1.4179687,1.441406 0.8554688,0 1.4765625,-0.621093 1.4765625,-1.441406 z M 7.1834672,-9.50625e-4 V -0.42282563 c -1.875,-0.140625 -2.0976563,-0.45703125 -2.0976563,-2.55468747 v -9.9726559 l -0.1171875,-0.117188 -4.40624996,1.570313 v 0.445312 c 0.51562496,-0.140625 0.93749996,-0.140625 1.19531246,-0.140625 0.7148438,0 0.9375,0.457031 0.9375,1.7929689 v 6.4453125 c 0,2.15624997 -0.28125,2.41406247 -2.23828121,2.53124997 v 0.421875005 z m 0,0"
         style="fill:#000000 icc-color(sRGB-IEC61966-2, 0.1, 0, 0, 0);fill-opacity:1;fill-rule:nonzero;stroke:none"
         aria-label="i"
         transform="matrix(1.3333333,0,0,1.3333333,2055.9572,943.88408)"
         clip-path="url(#clipPath50)" />
      <path
         id="path51"
         d="m 2.35565,4.0068619 c 1.9570312,-0.9375 3.1757812,-2.7304688 3.1757812,-4.42968753 0,-1.47656247 -0.984375,-2.47265627 -2.2617187,-2.47265627 -1.03125,0 -1.7109375,0.65625 -1.7109375,1.6171875 0,0.96093752 0.5976562,1.45312502 1.6523437,1.45312502 0.3046875,0 0.5976563,-0.1171875 0.8203125,-0.1171875 0.2226563,0 0.3984375,0.1640625 0.3984375,0.36328125 0,0.93750003 -0.796875,1.99218753 -2.3554687,3.04687503 z M 20.563658,-3.8915756 20.16522,-4.0556381 c -0.9375,1.5820312 -1.535156,1.8984375 -2.730468,1.8984375 H 10.79022 l 4.6875,-5.0039063 c 2.519532,-2.6601562 3.632813,-4.7929691 3.632813,-7.0429691 0,-2.800781 -2.050781,-4.992187 -5.25,-4.992187 -3.492188,0 -5.3085939,2.332031 -5.9062502,5.648437 l 0.5976563,0.140625 c 1.125,-2.777343 2.1210939,-3.691406 4.1718749,-3.691406 2.414063,0 3.949219,1.429688 3.949219,4.007813 0,2.414062 -1.03125,4.5703121 -3.691406,7.3828121 L 7.9191266,-0.34079438 V -9.50625e-4 H 19.028502 Z m 0,0"
         style="fill:#000000 icc-color(sRGB-IEC61966-2, 0.1, 0, 0, 0);fill-opacity:1;fill-rule:nonzero;stroke:none"
         aria-label=",2"
         transform="matrix(1.3333333,0,0,1.3333333,2066.4841,943.88408)"
         clip-path="url(#clipPath52)" />
      <path
         id="path53"
         d="m 1.1591656,-26.402318 c 5.8007813,4.570313 6.796875,9.164063 6.796875,16.6406252 0,7.7578125 -1.1132812,11.5195312 -6.796875,16.1953125 l 0.3632813,0.6445312 c 6.3515625,-3.8789062 9.8789061,-9.5625 9.8789061,-16.9570312 0,-6.7968747 -3.6445311,-13.4765627 -9.7617186,-17.1562497 z m 0,0"
         style="fill:#000000 icc-color(sRGB-IEC61966-2, 0.1, 0, 0, 0);fill-opacity:1;fill-rule:nonzero;stroke:none"
         aria-label=")"
         transform="matrix(1.3333333,0,0,1.3333333,2094.8841,930.55075)"
         clip-path="url(#clipPath54)" />
    </g>
    <g
       id="g54"
       transform="matrix(0.26458333,0,0,0.26458333,-391.74597,-12.02717)">
      <path
         id="path55"
         d="m 19.278719,-18.432483 h -6.082031 v 0.960937 c 1.722656,0.07031 2.167968,0.351563 2.167968,1.3125 0,0.480469 -0.08203,0.925781 -0.445312,1.957031 l -2.71875,7.5234378 -2.8828127,-7.4414058 c -0.4335938,-1.113282 -0.796875,-2.15625 -0.796875,-2.320313 0,-0.597656 0.4453125,-0.914062 1.4414062,-0.996094 l 0.6328125,-0.03516 v -0.960937 H 0.64590625 v 0.960937 c 0.87890625,0.117188 1.11328125,0.234375 1.35937505,0.550781 0.3515625,0.480469 1.875,3.84375 2.671875,5.847657 L 9.4349688,0.51673531 8.720125,2.6378291 c -0.6796875,2.0039062 -1.6757812,3.28125 -2.6367187,3.28125 -0.3632813,0 -0.6796875,-0.3164063 -0.6796875,-0.6796875 0,0 0,-0.1171875 0.035156,-0.234375 0.046875,-0.1992188 0.082031,-0.4101563 0.082031,-0.5625 0,-1.1601563 -1.0429688,-2.0859375 -2.4023438,-2.0859375 -1.5117187,0 -2.47265625,1.1601562 -2.47265625,2.6835937 0,1.875 1.59375005,3.1640625 3.87890625,3.1640625 1.359375,0 2.5195313,-0.4453125 3.3515625,-1.3242187 0.84375,-0.9140625 1.6875,-2.484375 3.0820315,-6.23437504 L 16.876375,-15.28014 c 0.644531,-1.722656 1.160156,-2.039062 2.402344,-2.191406 z m 0,0"
         style="fill:#000000 icc-color(sRGB-IEC61966-2, 0.1, 0, 0, 0);fill-opacity:1;fill-rule:nonzero;stroke:none"
         aria-label="y"
         transform="matrix(1.3333333,0,0,1.3333333,1991.3107,652.24461)"
         clip-path="url(#clipPath56)" />
      <path
         id="path57"
         d="m 11.190828,1.3375e-4 v -0.421875 c -2.1328124,0 -2.7070311,-0.515625 -2.7070311,-1.73437495 V -19.113147 l -0.2460938,-0.08203 -5.0859375,2.589844 v 0.386719 l 0.7617188,-0.28125 c 0.515625,-0.199219 0.9960937,-0.339844 1.2773437,-0.339844 0.5976563,0 0.8554688,0.433594 0.8554688,1.394531 v 12.7500003 c 0,1.5585937 -0.5976563,2.15624995 -2.6953125,2.27343745 v 0.421875 z m 0,0"
         style="fill:#000000 icc-color(sRGB-IEC61966-2, 0.1, 0, 0, 0);fill-opacity:1;fill-rule:nonzero;stroke:none"
         aria-label="1"
         transform="matrix(1.3333333,0,0,1.3333333,2017.9773,665.57795)"
         clip-path="url(#clipPath58)" />
    </g>
    <g
       id="g58"
       transform="matrix(0.26458333,0,0,0.26458333,-391.74597,-12.02717)">
      <path
         id="path59"
         d="m 19.278156,-18.434387 h -6.082031 v 0.960938 c 1.722656,0.07031 2.167969,0.351562 2.167969,1.3125 0,0.480469 -0.08203,0.925781 -0.445313,1.957031 l -2.71875,7.5234377 -2.8828122,-7.4414067 c -0.4335938,-1.113281 -0.796875,-2.15625 -0.796875,-2.320312 0,-0.597656 0.4453125,-0.914063 1.4414062,-0.996094 l 0.632813,-0.03516 v -0.960938 H 0.64534375 v 0.960938 c 0.87890625,0.117187 1.11328125,0.234375 1.35937505,0.550781 0.3515625,0.480469 1.875,3.84375 2.671875,5.847656 L 9.4344063,0.51483219 8.7195625,2.6359259 c -0.6796875,2.0039063 -1.6757812,3.28125 -2.6367187,3.28125 -0.3632813,0 -0.6796875,-0.3164062 -0.6796875,-0.6796875 0,0 0,-0.1171875 0.035156,-0.234375 0.046875,-0.1992187 0.082031,-0.4101562 0.082031,-0.5625 0,-1.1601562 -1.0429688,-2.0859375 -2.4023438,-2.0859375 -1.5117187,0 -2.47265625,1.1601563 -2.47265625,2.6835938 0,1.875 1.59375005,3.1640625 3.87890625,3.1640625 1.359375,0 2.5195313,-0.4453125 3.3515625,-1.3242188 0.84375,-0.9140625 1.6875,-2.484375 3.082031,-6.23437496 l 5.91797,-15.92578144 c 0.644531,-1.722656 1.160156,-2.039062 2.402343,-2.191406 z m 0,0"
         style="fill:#000000 icc-color(sRGB-IEC61966-2, 0.1, 0, 0, 0);fill-opacity:1;fill-rule:nonzero;stroke:none"
         aria-label="y"
         transform="matrix(1.3333333,0,0,1.3333333,2101.3427,273.03621)"
         clip-path="url(#clipPath60)" />
      <path
         id="path61"
         d="m 13.463703,-3.8894647 -0.398437,-0.1640625 c -0.9375,1.5820313 -1.535157,1.8984375 -2.730469,1.8984375 H 3.6902656 l 4.6875,-5.0039062 c 2.5195314,-2.6601563 3.6328124,-4.7929691 3.6328124,-7.0429691 0,-2.800781 -2.0507811,-4.992187 -5.2499999,-4.992187 -3.4921875,0 -5.3085937,2.332031 -5.90624997,5.648437 l 0.59765627,0.140625 c 1.125,-2.777343 2.1210937,-3.691406 4.171875,-3.691406 2.4140625,0 3.9492187,1.429688 3.9492187,4.007813 0,2.414062 -1.03125,4.5703121 -3.6914062,7.3828121 L 0.81917188,-0.33868344 V 0.00116031 H 11.928547 Z m 0,0"
         style="fill:#000000 icc-color(sRGB-IEC61966-2, 0.1, 0, 0, 0);fill-opacity:1;fill-rule:nonzero;stroke:none"
         aria-label="2"
         transform="matrix(1.3333333,0,0,1.3333333,2128.0093,286.36955)"
         clip-path="url(#clipPath62)" />
    </g>
    <g
       id="g62"
       transform="matrix(0.26458333,0,0,0.26458333,-391.74597,-12.02717)">
      <g
         id="g64"
         clip-path="url(#clipPath65)">
        <path
           d="m 12,0 h 2 99.7177 2"
           style="fill:none;stroke:#7030a0 icc-color(sRGB-IEC61966-2, 0.1, 0.43910217, 0.18955994, 0.62638855);stroke-width:4;stroke-linecap:butt;stroke-linejoin:miter;stroke-miterlimit:4;stroke-dasharray:8, 8;stroke-dashoffset:0;stroke-opacity:1"
           transform="matrix(-0.53943667,1.2193383,-1.2193383,-0.53943667,2123.9133,312.40067)"
           clip-path="url(#clipPath63)"
           id="path64" />
      </g>
      <path
         id="path66"
         d="m 1539.245,745.1027 0.885,-18.7621 14.479,11.9652 z"
         style="fill:#7030a0 icc-color(sRGB-IEC61966-2, 0.1, 0.43910217, 0.18955994, 0.62638855);fill-opacity:1;fill-rule:nonzero;stroke:none"
         transform="matrix(1.3333333,0,0,-1.3333333,0,1440)"
         clip-path="url(#clipPath67)" />
      <path
         id="path68"
         d="m 1583.701,842.13 c 1.564,3.5355 5.698,5.1336 9.234,3.5695 3.535,-1.5641 5.133,-5.6981 3.569,-9.2335 -1.564,-3.5355 -5.698,-5.1336 -9.233,-3.5695 -3.536,1.5641 -5.134,5.6981 -3.57,9.2335 z"
         style="fill:#7030a0 icc-color(sRGB-IEC61966-2, 0.1, 0.43910217, 0.18955994, 0.62638855);fill-opacity:1;fill-rule:nonzero;stroke:none"
         transform="matrix(1.3333333,0,0,-1.3333333,0,1440)"
         clip-path="url(#clipPath69)" />
    </g>
    <g
       id="g69"
       transform="matrix(0.26458333,0,0,0.26458333,-391.74597,-12.02717)">
      <g
         id="g71"
         clip-path="url(#clipPath72)">
        <path
           d="m 12,0 h 2 99.8067 2"
           style="fill:none;stroke:#7030a0 icc-color(sRGB-IEC61966-2, 0.1, 0.43910217, 0.18955994, 0.62638855);stroke-width:4;stroke-linecap:butt;stroke-linejoin:miter;stroke-miterlimit:4;stroke-dasharray:8, 8;stroke-dashoffset:0;stroke-opacity:1"
           transform="matrix(-0.53800587,1.2199703,-1.2199703,-0.53800587,1973.3133,651.73253)"
           clip-path="url(#clipPath70)"
           id="path71" />
      </g>
      <path
         id="path73"
         d="m 1426.377,490.4594 0.907,-18.761 14.465,11.9822 z"
         style="fill:#7030a0 icc-color(sRGB-IEC61966-2, 0.1, 0.43910217, 0.18955994, 0.62638855);fill-opacity:1;fill-rule:nonzero;stroke:none"
         transform="matrix(1.3333333,0,0,-1.3333333,0,1440)"
         clip-path="url(#clipPath74)" />
      <path
         id="path75"
         d="m 1470.755,587.6202 c 1.56,3.5373 5.692,5.1403 9.23,3.5804 3.537,-1.56 5.14,-5.6921 3.58,-9.2294 -1.56,-3.5373 -5.692,-5.1403 -9.229,-3.5803 -3.538,1.5599 -5.141,5.692 -3.581,9.2293 z"
         style="fill:#7030a0 icc-color(sRGB-IEC61966-2, 0.1, 0.43910217, 0.18955994, 0.62638855);fill-opacity:1;fill-rule:nonzero;stroke:none"
         transform="matrix(1.3333333,0,0,-1.3333333,0,1440)"
         clip-path="url(#clipPath76)" />
    </g>
    <g
       id="g76"
       transform="matrix(0.26458333,0,0,0.26458333,-391.74597,-12.02717)">
      <path
         id="path77"
         d="m 22.360594,-7.1961022 -0.796875,-0.2460937 c -1.125,2.3203125 -2.003906,3.6445312 -3.28125,4.4765625 -1.957031,1.3242187 -3.199219,1.5234375 -7.207031,1.5234375 -3.2695317,0 -4.195313,-0.3984375 -4.195313,-1.640625 0,-0.5625 0.1640625,-1.2421875 0.3984375,-2.15625 L 12.08325,-22.395321 c 0.632813,-2.285156 1.640625,-2.917969 4.03125,-3.082031 v -0.644531 H 5.2043438 v 0.644531 c 2.4726562,0.164062 3.0703125,0.5625 3.0703125,1.722656 0,0.597656 -0.1171875,1.394531 -0.4335938,2.472656 l -4.875,17.5195316 C 2.2395,-1.2429772 1.9230938,-0.87969594 -0.3151875,-0.64532094 V -7.896875e-4 H 20.040281 Z m 0,0"
         style="fill:#7030a0 icc-color(sRGB-IEC61966-2, 0.1, 0.43910217, 0.18955994, 0.62638855);fill-opacity:1;fill-rule:nonzero;stroke:none"
         aria-label="L"
         transform="matrix(1.3333333,0,0,1.3333333,1939.764,807.24715)"
         clip-path="url(#clipPath78)" />
      <path
         id="path79"
         d="m 12.164539,6.4328041 c -5.6015624,-4.6757813 -6.8085937,-9.1875 -6.8085937,-16.6289061 0,-7.722656 1.2421875,-11.4375 6.8085937,-16.207031 l -0.363281,-0.632813 c -6.3984377,3.796875 -9.8789064,9.5625 -9.8789064,16.957031 0,6.7968753 3.4335937,13.5585941 9.7617184,17.1562503 z m 0,0"
         style="fill:#7030a0 icc-color(sRGB-IEC61966-2, 0.1, 0.43910217, 0.18955994, 0.62638855);fill-opacity:1;fill-rule:nonzero;stroke:none"
         aria-label="("
         transform="matrix(1.3333333,0,0,1.3333333,1969.4173,807.24715)"
         clip-path="url(#clipPath80)" />
      <path
         id="path81"
         d="m 19.27618,-18.434383 h -6.082032 v 0.960937 c 1.722657,0.07031 2.167969,0.351563 2.167969,1.3125 0,0.480469 -0.08203,0.925781 -0.445312,1.957031 l -2.71875,7.5234378 -2.8828128,-7.4414058 c -0.4335938,-1.113282 -0.796875,-2.15625 -0.796875,-2.320313 0,-0.597656 0.4453125,-0.914062 1.4414062,-0.996094 l 0.6328126,-0.03516 v -0.960937 H 0.64336719 v 0.960937 c 0.87890621,0.117188 1.11328121,0.234375 1.35937501,0.550781 0.3515625,0.480469 1.875,3.84375 2.671875,5.847657 L 9.4324297,0.51483531 8.7175859,2.6359291 c -0.6796875,2.0039062 -1.6757812,3.28125 -2.6367187,3.28125 -0.3632813,0 -0.6796875,-0.3164063 -0.6796875,-0.6796875 0,0 0,-0.1171875 0.035156,-0.234375 0.046875,-0.1992188 0.082031,-0.4101563 0.082031,-0.5625 0,-1.1601563 -1.0429688,-2.0859375 -2.4023438,-2.0859375 -1.5117187,0 -2.47265621,1.1601562 -2.47265621,2.6835937 0,1.875 1.59375001,3.1640625 3.87890621,3.1640625 1.359375,0 2.5195313,-0.4453125 3.3515625,-1.3242187 0.84375,-0.9140625 1.6875,-2.484375 3.0820306,-6.23437504 L 16.873836,-15.28204 c 0.644531,-1.722656 1.160156,-2.039062 2.402344,-2.191406 z m 0,0"
         style="fill:#7030a0 icc-color(sRGB-IEC61966-2, 0.1, 0.43910217, 0.18955994, 0.62638855);fill-opacity:1;fill-rule:nonzero;stroke:none"
         aria-label="y"
         transform="matrix(1.3333333,0,0,1.3333333,1987.1773,807.24715)"
         clip-path="url(#clipPath82)" />
      <path
         id="path83"
         d="m 11.191219,0.00116344 v -0.421875 c -2.1328127,0 -2.7070315,-0.515625 -2.7070315,-1.73437504 V -19.112118 l -0.2460937,-0.08203 -5.0859375,2.589844 v 0.386718 l 0.7617187,-0.28125 c 0.515625,-0.199218 0.9960938,-0.339843 1.2773438,-0.339843 0.5976562,0 0.8554687,0.433593 0.8554687,1.394531 v 12.7499999 c 0,1.5585938 -0.5976562,2.15625004 -2.6953125,2.27343754 v 0.421875 z m 0,0"
         style="fill:#7030a0 icc-color(sRGB-IEC61966-2, 0.1, 0.43910217, 0.18955994, 0.62638855);fill-opacity:1;fill-rule:nonzero;stroke:none"
         aria-label="1"
         transform="matrix(1.3333333,0,0,1.3333333,2013.844,820.58048)"
         clip-path="url(#clipPath84)" />
      <path
         id="path85"
         d="m 3.3164141,5.6359291 c 2.765625,-1.3125 4.4882812,-3.8320313 4.4882812,-6.23437504 0,-2.08593746 -1.40625,-3.48046876 -3.2109375,-3.48046876 -1.4296875,0 -2.390625,0.9140625 -2.390625,2.2734375 0,1.35937501 0.8320313,2.03906251 2.3203125,2.03906251 0.4335938,0 0.8320313,-0.15234375 1.1601563,-0.15234375 0.3164062,0 0.5507812,0.234375 0.5507812,0.515625 0,1.32421874 -1.1132812,2.80078124 -3.3164062,4.27734374 z m 0,0"
         style="fill:#7030a0 icc-color(sRGB-IEC61966-2, 0.1, 0.43910217, 0.18955994, 0.62638855);fill-opacity:1;fill-rule:nonzero;stroke:none"
         aria-label=","
         transform="matrix(1.3333333,0,0,1.3333333,2032.7773,807.24715)"
         clip-path="url(#clipPath86)" />
      <path
         id="path87"
         d="M 24.830844,-8.8015709 V -11.43829 H 2.5535006 v 2.6367191 z m 0,0"
         style="fill:#7030a0 icc-color(sRGB-IEC61966-2, 0.1, 0.43910217, 0.18955994, 0.62638855);fill-opacity:1;fill-rule:nonzero;stroke:none"
         aria-label="−"
         transform="matrix(1.3333333,0,0,1.3333333,2057.9625,807.24715)"
         clip-path="url(#clipPath88)" />
      <path
         id="path89"
         d="m 18.914005,-17.403133 c 1.769531,0 2.683593,0.398437 3.046875,1.324218 0.234375,0.597657 0.316406,1.277344 0.316406,2.074219 0,2.519531 -2.074219,13.35937506 -6.316406,13.35937506 -1.523438,0 -2.121094,-1.19531246 -2.121094,-2.87109376 0,-0.4804687 0.03516,-1.0078125 0.117187,-1.5234375 0.28125,-0.4804687 1.722657,-3 2.15625,-4.6054687 0.246094,-0.9140621 0.410157,-1.8398441 0.410157,-2.5898441 0,-1.523437 -0.527344,-2.601562 -1.488282,-2.601562 -2.753906,0 -4.230468,4.640625 -4.230468,7.8749998 0,0.796875 0.03516,1.4765625 0.03516,1.9570313 -0.8789063,2.4023437 -2.3554688,4.35937496 -4.3242188,4.35937496 -1.359375,0 -1.875,-1.27734376 -1.875,-2.67187496 0,-4.6875 1.5234375,-9.8789061 4.1132812,-12.7265621 1.0078125,-1.113282 2.2851566,-1.359375 4.0429686,-1.359375 v -1.078125 c -4.3124998,0 -6.7968748,1.125 -8.8007811,3 -2.390625,2.320312 -4.11328121,5.7187496 -4.11328121,10.4062496 0,2.0742187 0.99609375,3.8789062 2.63671871,4.79296871 0.9609375,0.5625 2.203125,0.796875 3.4453125,0.796875 2.15625,0 4.4296871,-0.796875 5.6367191,-2.47265621 0.632812,1.83984371 2.519531,2.47265621 4.476562,2.47265621 0.84375,0 1.722656,-0.1171875 2.484375,-0.3515625 5.109375,-1.55859371 8.472656,-7.75781251 8.472656,-12.52734381 0,-1.078125 -0.234375,-2.039062 -0.679687,-2.871094 -0.960938,-1.886718 -2.882813,-3.246093 -7.441406,-3.246093 z m 0,0"
         style="fill:#7030a0 icc-color(sRGB-IEC61966-2, 0.1, 0.43910217, 0.18955994, 0.62638855);fill-opacity:1;fill-rule:nonzero;stroke:none"
         aria-label="ω"
         transform="matrix(1.3333333,0,0,1.3333333,2106.3477,807.24715)"
         clip-path="url(#clipPath90)" />
      <path
         id="path91"
         d="m 5.1108109,-17.940243 c 0,-0.796875 -0.6210937,-1.453125 -1.4414062,-1.453125 -0.796875,0 -1.453125,0.65625 -1.453125,1.453125 0,0.820313 0.6210937,1.441406 1.4179687,1.441406 0.8554688,0 1.4765625,-0.621093 1.4765625,-1.441406 z M 7.1850297,0.00116344 v -0.421875 c -1.875,-0.140625 -2.0976563,-0.45703125 -2.0976563,-2.55468754 v -9.9726559 l -0.1171875,-0.117188 -4.40624996,1.570313 v 0.445312 c 0.51562496,-0.140625 0.93749996,-0.140625 1.19531246,-0.140625 0.7148438,0 0.9375,0.457031 0.9375,1.7929689 v 6.4453125 c 0,2.15625004 -0.28125,2.41406254 -2.23828121,2.53125004 v 0.421875 z m 0,0"
         style="fill:#7030a0 icc-color(sRGB-IEC61966-2, 0.1, 0.43910217, 0.18955994, 0.62638855);fill-opacity:1;fill-rule:nonzero;stroke:none"
         aria-label="i"
         transform="matrix(1.3333333,0,0,1.3333333,2143.6739,820.58048)"
         clip-path="url(#clipPath92)" />
      <path
         id="path93"
         d="m 2.3542828,4.0089759 c 1.9570313,-0.9375 3.1757813,-2.7304687 3.1757813,-4.42968746 0,-1.47656254 -0.984375,-2.47265624 -2.2617188,-2.47265624 -1.03125,0 -1.7109375,0.65625 -1.7109375,1.6171875 0,0.96093749 0.5976563,1.45312499 1.6523438,1.45312499 0.3046875,0 0.5976562,-0.1171875 0.8203125,-0.1171875 0.2226562,0 0.3984375,0.1640625 0.3984375,0.36328125 0,0.93749996 -0.796875,1.99218746 -2.3554688,3.04687496 z M 20.56522,-3.8894616 20.166783,-4.0535241 c -0.9375,1.5820313 -1.535156,1.8984375 -2.730469,1.8984375 h -6.644531 l 4.6875,-5.0039062 c 2.519531,-2.6601563 3.632812,-4.7929692 3.632812,-7.0429692 0,-2.800781 -2.050781,-4.992187 -5.25,-4.992187 -3.492187,0 -5.3085934,2.332031 -5.9062497,5.648437 l 0.5976563,0.140625 c 1.125,-2.777343 2.1210934,-3.691406 4.1718754,-3.691406 2.414062,0 3.949218,1.429688 3.949218,4.007813 0,2.414062 -1.03125,4.5703122 -3.691406,7.3828122 L 7.9206891,-0.33868031 V 0.00116344 H 19.030064 Z m 0,0"
         style="fill:#7030a0 icc-color(sRGB-IEC61966-2, 0.1, 0.43910217, 0.18955994, 0.62638855);fill-opacity:1;fill-rule:nonzero;stroke:none"
         aria-label=",2"
         transform="matrix(1.3333333,0,0,1.3333333,2154.2008,820.58048)"
         clip-path="url(#clipPath94)" />
      <path
         id="path95"
         d="m 1.1607281,-26.403133 c 5.8007813,4.570312 6.796875,9.164062 6.796875,16.6406246 0,7.7578125 -1.1132812,11.5195312 -6.796875,16.1953125 l 0.3632813,0.6445312 c 6.3515625,-3.8789062 9.8789066,-9.5625 9.8789066,-16.9570312 0,-6.7968751 -3.6445316,-13.4765621 -9.7617191,-17.1562501 z m 0,0"
         style="fill:#7030a0 icc-color(sRGB-IEC61966-2, 0.1, 0.43910217, 0.18955994, 0.62638855);fill-opacity:1;fill-rule:nonzero;stroke:none"
         aria-label=")"
         transform="matrix(1.3333333,0,0,1.3333333,2182.6008,807.24715)"
         clip-path="url(#clipPath96)" />
    </g>
    <g
       id="g96"
       transform="matrix(0.26458333,0,0,0.26458333,-391.74597,-12.02717)">
      <path
         id="path97"
         d="M 22.358945,-7.1952772 21.56207,-7.4413709 c -1.125,2.3203125 -2.003906,3.6445312 -3.28125,4.4765625 -1.957031,1.3242187 -3.199218,1.5234375 -7.207031,1.5234375 -3.2695312,0 -4.1953124,-0.3984375 -4.1953124,-1.640625 0,-0.5625 0.1640625,-1.2421875 0.3984375,-2.15625 L 12.081602,-22.394496 c 0.632812,-2.285156 1.640625,-2.917969 4.03125,-3.082031 v -0.644531 H 5.2026953 v 0.644531 c 2.4726563,0.164062 3.0703125,0.5625 3.0703125,1.722656 0,0.597656 -0.1171875,1.394531 -0.4335937,2.472656 l -4.875,17.5195316 c -0.7265625,2.5195312 -1.0429688,2.88281246 -3.28125004,3.11718746 V 3.53125e-5 H 20.038633 Z m 0,0"
         style="fill:#7030a0 icc-color(sRGB-IEC61966-2, 0.1, 0.43910217, 0.18955994, 0.62638855);fill-opacity:1;fill-rule:nonzero;stroke:none"
         aria-label="L"
         transform="matrix(1.3333333,0,0,1.3333333,2092.2467,473.93355)"
         clip-path="url(#clipPath98)" />
      <path
         id="path99"
         d="m 12.162891,6.4336291 c -5.6015629,-4.6757813 -6.8085941,-9.1875 -6.8085941,-16.6289061 0,-7.722656 1.2421875,-11.4375 6.8085941,-16.207031 l -0.363282,-0.632813 c -6.3984371,3.796875 -9.8789059,9.5625 -9.8789059,16.957031 0,6.7968753 3.4335938,13.5585941 9.7617189,17.1562503 z m 0,0"
         style="fill:#7030a0 icc-color(sRGB-IEC61966-2, 0.1, 0.43910217, 0.18955994, 0.62638855);fill-opacity:1;fill-rule:nonzero;stroke:none"
         aria-label="("
         transform="matrix(1.3333333,0,0,1.3333333,2121.9,473.93355)"
         clip-path="url(#clipPath100)" />
      <path
         id="path101"
         d="M 19.277461,-18.433558 H 13.19543 v 0.960937 c 1.722656,0.07031 2.167968,0.351563 2.167968,1.3125 0,0.480469 -0.08203,0.925781 -0.445312,1.957031 l -2.71875,7.5234378 -2.8828126,-7.4414058 c -0.4335937,-1.113282 -0.796875,-2.15625 -0.796875,-2.320313 0,-0.597656 0.4453125,-0.914062 1.4414063,-0.996094 l 0.6328123,-0.03516 v -0.960937 H 0.64464844 v 0.960937 c 0.87890626,0.117188 1.11328126,0.234375 1.35937496,0.550781 0.3515625,0.480469 1.875,3.84375 2.671875,5.847657 L 9.4337109,0.51566031 8.7188672,2.6367541 c -0.6796875,2.0039062 -1.6757813,3.28125 -2.6367188,3.28125 -0.3632812,0 -0.6796875,-0.3164063 -0.6796875,-0.6796875 0,0 0,-0.1171875 0.035156,-0.234375 0.046875,-0.1992188 0.082031,-0.4101563 0.082031,-0.5625 0,-1.1601563 -1.0429687,-2.0859375 -2.4023437,-2.0859375 -1.5117188,0 -2.47265626,1.1601562 -2.47265626,2.6835937 0,1.875 1.59374996,3.1640625 3.87890626,3.1640625 1.359375,0 2.5195312,-0.4453125 3.3515625,-1.3242187 0.84375,-0.9140625 1.6875,-2.484375 3.0820313,-6.23437504 L 16.875117,-15.281215 c 0.644531,-1.722656 1.160156,-2.039062 2.402344,-2.191406 z m 0,0"
         style="fill:#7030a0 icc-color(sRGB-IEC61966-2, 0.1, 0.43910217, 0.18955994, 0.62638855);fill-opacity:1;fill-rule:nonzero;stroke:none"
         aria-label="y"
         transform="matrix(1.3333333,0,0,1.3333333,2139.66,473.93355)"
         clip-path="url(#clipPath102)" />
      <path
         id="path103"
         d="M 13.465938,-3.8915662 13.0675,-4.0556287 c -0.9375,1.5820312 -1.535156,1.8984375 -2.730469,1.8984375 H 3.6925 L 8.38,-7.1610975 c 2.519531,-2.6601562 3.632813,-4.7929685 3.632813,-7.0429685 0,-2.800781 -2.0507817,-4.992188 -5.2500005,-4.992188 -3.4921875,0 -5.3085937,2.332032 -5.90625,5.648438 l 0.5976563,0.140625 c 1.125,-2.777344 2.1210937,-3.691406 4.171875,-3.691406 2.4140625,0 3.9492187,1.429687 3.9492187,4.007812 0,2.414063 -1.03125,4.5703125 -3.6914062,7.3828125 L 0.82140625,-0.340785 V -9.4125e-4 H 11.930781 Z m 0,0"
         style="fill:#7030a0 icc-color(sRGB-IEC61966-2, 0.1, 0.43910217, 0.18955994, 0.62638855);fill-opacity:1;fill-rule:nonzero;stroke:none"
         aria-label="2"
         transform="matrix(1.3333333,0,0,1.3333333,2166.3267,487.26688)"
         clip-path="url(#clipPath104)" />
      <path
         id="path105"
         d="m 3.3176953,5.6367541 c 2.765625,-1.3125 4.4882813,-3.8320313 4.4882813,-6.23437504 0,-2.08593746 -1.40625,-3.48046876 -3.2109375,-3.48046876 -1.4296875,0 -2.390625,0.9140625 -2.390625,2.2734375 0,1.35937501 0.8320312,2.03906251 2.3203125,2.03906251 0.4335937,0 0.8320312,-0.15234375 1.1601562,-0.15234375 0.3164063,0 0.5507813,0.234375 0.5507813,0.515625 0,1.32421874 -1.1132813,2.80078124 -3.3164063,4.27734374 z m 0,0"
         style="fill:#7030a0 icc-color(sRGB-IEC61966-2, 0.1, 0.43910217, 0.18955994, 0.62638855);fill-opacity:1;fill-rule:nonzero;stroke:none"
         aria-label=","
         transform="matrix(1.3333333,0,0,1.3333333,2185.26,473.93355)"
         clip-path="url(#clipPath106)" />
      <path
         id="path107"
         d="M 24.832126,-8.8007459 V -11.437465 H 2.5547819 v 2.6367191 z m 0,0"
         style="fill:#7030a0 icc-color(sRGB-IEC61966-2, 0.1, 0.43910217, 0.18955994, 0.62638855);fill-opacity:1;fill-rule:nonzero;stroke:none"
         aria-label="−"
         transform="matrix(1.3333333,0,0,1.3333333,2210.4452,473.93355)"
         clip-path="url(#clipPath108)" />
      <path
         id="path109"
         d="m 18.915286,-17.402308 c 1.769531,0 2.683594,0.398437 3.046875,1.324218 0.234375,0.597657 0.316406,1.277344 0.316406,2.074219 0,2.519531 -2.074219,13.35937506 -6.316406,13.35937506 -1.523438,0 -2.121094,-1.19531246 -2.121094,-2.87109376 0,-0.4804687 0.03516,-1.0078125 0.117188,-1.5234375 0.28125,-0.4804687 1.722656,-3 2.15625,-4.6054687 0.246093,-0.9140621 0.410156,-1.8398441 0.410156,-2.5898441 0,-1.523437 -0.527344,-2.601562 -1.488281,-2.601562 -2.753907,0 -4.230469,4.640625 -4.230469,7.8749998 0,0.796875 0.03516,1.4765625 0.03516,1.9570313 -0.8789061,2.4023437 -2.3554686,4.35937496 -4.3242186,4.35937496 -1.359375,0 -1.875,-1.27734376 -1.875,-2.67187496 0,-4.6875 1.5234375,-9.8789061 4.1132813,-12.7265621 1.0078125,-1.113282 2.2851563,-1.359375 4.0429683,-1.359375 v -1.078125 c -4.3124996,0 -6.7968746,1.125 -8.8007808,3 -2.390625,2.320312 -4.11328126,5.7187496 -4.11328126,10.4062496 0,2.0742187 0.99609375,3.8789062 2.63671876,4.79296871 0.9609375,0.5625 2.203125,0.796875 3.4453125,0.796875 2.15625,0 4.4296878,-0.796875 5.6367188,-2.47265621 0.632812,1.83984371 2.519531,2.47265621 4.476562,2.47265621 0.84375,0 1.722657,-0.1171875 2.484375,-0.3515625 5.109375,-1.55859371 8.472657,-7.75781251 8.472657,-12.52734381 0,-1.078125 -0.234375,-2.039062 -0.679688,-2.871094 -0.960937,-1.886718 -2.882812,-3.246093 -7.441406,-3.246093 z m 0,0"
         style="fill:#7030a0 icc-color(sRGB-IEC61966-2, 0.1, 0.43910217, 0.18955994, 0.62638855);fill-opacity:1;fill-rule:nonzero;stroke:none"
         aria-label="ω"
         transform="matrix(1.3333333,0,0,1.3333333,2258.8304,473.93355)"
         clip-path="url(#clipPath110)" />
      <path
         id="path111"
         d="m 5.1091625,-17.942347 c 0,-0.796875 -0.6210938,-1.453125 -1.4414063,-1.453125 -0.796875,0 -1.453125,0.65625 -1.453125,1.453125 0,0.820312 0.6210938,1.441406 1.4179688,1.441406 0.8554687,0 1.4765625,-0.621094 1.4765625,-1.441406 z M 7.1833812,-9.4125e-4 v -0.421875 C 5.3083812,-0.56344125 5.085725,-0.8798475 5.085725,-2.9775037 V -12.95016 l -0.1171875,-0.117187 -4.40625,1.570312 v 0.445313 c 0.515625,-0.140625 0.9375,-0.140625 1.1953125,-0.140625 0.7148437,0 0.9375,0.457031 0.9375,1.7929683 v 6.4453125 c 0,2.15624995 -0.28125,2.41406245 -2.23828125,2.53124995 v 0.421875 z m 0,0"
         style="fill:#7030a0 icc-color(sRGB-IEC61966-2, 0.1, 0.43910217, 0.18955994, 0.62638855);fill-opacity:1;fill-rule:nonzero;stroke:none"
         aria-label="i"
         transform="matrix(1.3333333,0,0,1.3333333,2296.1565,487.26688)"
         clip-path="url(#clipPath112)" />
      <path
         id="path113"
         d="m 2.3555641,4.0068713 c 1.9570312,-0.9375 3.1757812,-2.7304688 3.1757812,-4.42968755 0,-1.47656245 -0.984375,-2.47265625 -2.2617187,-2.47265625 -1.03125,0 -1.7109375,0.65625 -1.7109375,1.6171875 0,0.9609375 0.5976562,1.453125 1.6523437,1.453125 0.3046875,0 0.5976563,-0.1171875 0.8203125,-0.1171875 0.2226563,0 0.3984375,0.1640625 0.3984375,0.36328125 0,0.93750005 -0.796875,1.99218755 -2.3554687,3.04687505 z M 20.563572,-3.8915662 20.165134,-4.0556287 c -0.9375,1.5820312 -1.535156,1.8984375 -2.730468,1.8984375 h -6.644532 l 4.6875,-5.0039063 c 2.519532,-2.6601562 3.632813,-4.7929685 3.632813,-7.0429685 0,-2.800781 -2.050781,-4.992188 -5.25,-4.992188 -3.492188,0 -5.3085939,2.332032 -5.9062501,5.648438 l 0.5976562,0.140625 c 1.125,-2.777344 2.1210939,-3.691406 4.1718749,-3.691406 2.414063,0 3.949219,1.429687 3.949219,4.007812 0,2.414063 -1.03125,4.5703125 -3.691406,7.3828125 L 7.9190406,-0.340785 V -9.4125e-4 H 19.028416 Z m 0,0"
         style="fill:#7030a0 icc-color(sRGB-IEC61966-2, 0.1, 0.43910217, 0.18955994, 0.62638855);fill-opacity:1;fill-rule:nonzero;stroke:none"
         aria-label=",2"
         transform="matrix(1.3333333,0,0,1.3333333,2306.6835,487.26688)"
         clip-path="url(#clipPath114)" />
      <path
         id="path115"
         d="m 1.1590797,-26.402308 c 5.8007812,4.570312 6.796875,9.164062 6.796875,16.6406246 0,7.7578125 -1.1132813,11.5195312 -6.796875,16.1953125 l 0.3632812,0.6445312 c 6.3515625,-3.8789062 9.8789061,-9.5625 9.8789061,-16.9570312 0,-6.7968751 -3.6445311,-13.4765621 -9.7617186,-17.1562501 z m 0,0"
         style="fill:#7030a0 icc-color(sRGB-IEC61966-2, 0.1, 0.43910217, 0.18955994, 0.62638855);fill-opacity:1;fill-rule:nonzero;stroke:none"
         aria-label=")"
         transform="matrix(1.3333333,0,0,1.3333333,2335.0835,473.93355)"
         clip-path="url(#clipPath116)" />
    </g>
    <g
       id="g234"
       transform="matrix(0.26458333,0,0,0.26458333,-391.74597,-12.02717)">
      <path
         id="path235"
         d="m 12,0 h 2 97.3419 2"
         style="fill:none;stroke:#000000 icc-color(sRGB-IEC61966-2, 0.1, 0, 0, 0);stroke-width:4;stroke-linecap:butt;stroke-linejoin:miter;stroke-miterlimit:8;stroke-dasharray:none;stroke-opacity:1"
         transform="matrix(0.54960747,-1.2147879,1.2147879,0.54960747,1825.1547,985.65493)"
         clip-path="url(#clipPath236)" />
      <path
         id="path237"
         d="m 1422.415,438.7388 -0.728,18.7689 -14.578,-11.8438 z"
         style="fill:#000000 icc-color(sRGB-IEC61966-2, 0.1, 0, 0, 0);fill-opacity:1;fill-rule:nonzero;stroke:none"
         transform="matrix(1.3333333,0,0,-1.3333333,0,1440)"
         clip-path="url(#clipPath238)" />
      <path
         id="path239"
         d="m 1378.129,344.251 c -1.593,-3.5223 -5.741,-5.0858 -9.263,-3.4922 -3.522,1.5936 -5.086,5.7408 -3.492,9.2631 1.593,3.5222 5.741,5.0858 9.263,3.4922 3.522,-1.5936 5.086,-5.7408 3.492,-9.2631 z"
         style="fill:#000000 icc-color(sRGB-IEC61966-2, 0.1, 0, 0, 0);fill-opacity:1;fill-rule:nonzero;stroke:none"
         transform="matrix(1.3333333,0,0,-1.3333333,0,1440)"
         clip-path="url(#clipPath240)" />
    </g>
  </g>
</svg>
